<svg xmlns="http://www.w3.org/2000/svg" viewBox="0 0 427.15 511.56"><defs><style>.cls-1{fill:#c71c6d;}</style></defs><g id="Layer_2" data-name="Layer 2"><g id="Layer_1-2" data-name="Layer 1"><g id="Layer_2-2" data-name="Layer 2"><g id="Layer_1-2-2" data-name="Layer 1-2"><g id="Layer_2-2-2" data-name="Layer 2-2"><g id="Layer_1-2-2-2" data-name="Layer 1-2-2"><path class="cls-1" d="M291.63,246.26a42.43,42.43,0,1,0-42.44,42.42h0A42.57,42.57,0,0,0,291.63,246.26Zm-68.73,0a25.46,25.46,0,1,1,25.47,25.45h0a25.53,25.53,0,0,1-25.46-25.45Z"/><path class="cls-1" d="M211.32,464.05a48.46,48.46,0,0,0-22.91-40.73l38.73-95.61a93.65,93.65,0,0,0,22.06,2.54c15.27,0,30.55-4.24,42.42-11.87l53.22,60.87c-8.49,8.49-12.73,19.52-12.73,32.25A47.52,47.52,0,1,0,379.65,364h0a40.16,40.16,0,0,0-20.36,5.09L306,308.19a83.46,83.46,0,0,0,28.82-63.63,84.46,84.46,0,0,0-39-71.27l40.27-59c4.24,1.7,9.33,1.7,13.57,1.7a48.39,48.39,0,1,0-28.84-10.19l-40.28,59a93.54,93.54,0,0,0-31.39-5.93,79.55,79.55,0,0,0-25.45,4.24L183.17,86.56a47.33,47.33,0,1,0-73.82-39c0,29.7,28,52.61,57.7,45.82l40.57,78.18a85,85,0,0,0-44.12,74.66,66.11,66.11,0,0,0,2.58,18.7L89.17,284.83c-7.64-14.42-23.76-24.6-41.57-24.6A47.52,47.52,0,1,0,95,307.83v-.09a18.58,18.58,0,0,0-.85-6.79L171.11,281A90.2,90.2,0,0,0,211,322.62l-38.7,95.61c-2.54-.85-5.94-.85-8.48-.85a47.43,47.43,0,0,0-47.52,47.34v.18c0,25.45,21.21,46.66,47.51,46.66a47.44,47.44,0,0,0,47.52-47.36h0V464Zm198-50.85a30.55,30.55,0,1,1-30.55-30.55h0a30.41,30.41,0,0,1,30.55,30.27h0ZM319.17,71a30.55,30.55,0,1,1,30.56,30.54h0a30.44,30.44,0,0,1-30.55-30.31V71ZM126.32,50a30.55,30.55,0,1,1,61.1,0h0c0,12.73-7.64,22.91-18.67,28C148.38,85.66,126.32,71.24,126.32,50ZM48.44,338.29A30.55,30.55,0,1,1,79,307.74C79,324.71,64.56,338.29,48.44,338.29Zm132-92a67.88,67.88,0,1,1,67.88,67.88,67.88,67.88,0,0,1-67.88-67.88ZM133.26,464.05a30.55,30.55,0,1,1,30.59,30.51h0a30.44,30.44,0,0,1-30.55-30.31Z"/></g></g></g></g></g></g></svg>