<svg xmlns="http://www.w3.org/2000/svg" viewBox="0 0 501.47 543.03"><defs><style>.cls-1{fill:#c71c6d;}</style></defs><g id="Layer_2" data-name="Layer 2"><g id="Layer_1-2" data-name="Layer 1"><path class="cls-1" d="M0,151a30.05,30.05,0,0,0,29.7,29.69,29.27,29.27,0,0,0,28-21.21h42.42c4.24,77.21,66.19,138.3,142.55,142.55v24.61c-11.88-5.09-25.45-3.4-39.88-2.55-11,.85-30.54,3.4-32.24-5.09-.85-4.24-5.09-7.64-9.33-6.79s-7.64,4.24-7.64,8.49v34.79c4.24,22.06,30.55,20.36,50.06,18.66,22.07-1.69,38.19-3.39,38.19,12.73v24.61c-3.4,0-4.24-.85-6.79-1.7-31.4-14.43-63.64-14.43-89.09.85-2.55-11-11.88-19.52-23.76-19.52H104.38a24.63,24.63,0,0,0-24.61,24.61V518.43A24.62,24.62,0,0,0,104.38,543h17.81c11,0,19.52-6.79,22.91-17,12.73-6.79,28.85-3.39,44.12-.85,81.46,13.58,92.49-5.93,155.27-50.06L375,453.09c19.51-17,13.57-49.21-16.12-49.21-5.09,0-6.79.85-7.64,1.7l-51.76,30.54c0-2.54-.84-4.24-.84-6.79-2.55-10.18-10.19-17.81-18.67-17.81H259.64c2.55-32.25-11-41.58,38.19-37.34,20.36,1.7,45.81,4.25,50.06-18.66V320.73c0-4.24-3.39-7.64-7.64-8.48s-8.48,2.54-9.33,6.79c-1.69,8.48-20.36,5.93-32.24,5.09-13.57-.85-27.15-2.55-39.88,2.54v-24.6c76.36-4.24,138.3-65.33,142.55-142.55h42.43c3.39,11.88,15.27,21.21,28,21.21a29.7,29.7,0,0,0,0-59.39,29.25,29.25,0,0,0-28,21.21H401.35C397.09,63.64,331.76,0,251.15,0s-145.94,63.64-151,142.55H57.69c-3.39-11.88-15.27-21.21-28-21.21A30.06,30.06,0,0,0,0,151Zm177.34,8.48c.85,16.12,1.7,32.24,5.09,46.67H129c-6.79-14.43-10.19-30.55-11.88-46.67Zm26.3,63.64h39v60.24C227.4,277.45,212.13,256.24,203.64,223.15Zm56,60.24V223.15h39C290.19,256.24,274.91,277.45,259.64,283.39Zm0-77.21V159.51H308a356.63,356.63,0,0,1-5.08,46.67Zm0-63.64V95.88h43.27A371.4,371.4,0,0,1,308,142.54Zm0-63.63V18.66c15.27,5.94,30.55,27.16,39,60.25Zm-17-60.25V78.91h-39C212.13,46.66,227.4,24.6,242.67,18.66Zm0,77.22v46.66H194.31a357.89,357.89,0,0,1,5.09-46.66Zm0,63.63v46.67H199.4a373.44,373.44,0,0,1-5.09-46.67ZM138.31,223.15h47.52c5.94,22.91,15.27,42.43,25.45,56-30.55-9.33-56-29.7-73-56ZM202.8,357.21c-9.34.85-29.7,3.39-32.25-4.24V340.24c8.49,2.55,21.22,1.7,33.94.85,22.06-1.7,38.19-3.4,38.19,12.73v5.09c-11.88-5.09-26.31-3.4-39.88-1.7ZM123,526.06H105.22a7.6,7.6,0,0,1-7.63-7.64V415.75a7.6,7.6,0,0,1,7.63-7.63H123a7.61,7.61,0,0,1,7.64,7.63V518.42A7.61,7.61,0,0,1,123,526.06Zm156.12-97.58c.85,0,2.55,1.7,3.39,5.09.85,4.24.85,9.33,0,11.88-22.06,6.79-22.91,5.09-62.79,5.94a8.5,8.5,0,0,0-8.48,8.48c0,4.24,4.24,8.49,8.48,8.49,20.37-.85,56,1.69,72.13-8.49l67-39h.84c14.43,0,10.19,14.43,5.94,19.52L336,461.58c-61.94,44.12-67.88,60.24-142.55,47.51-15.28-2.54-31.4-5.09-45.82-1.69V430.19c22.06-17,50.91-19.52,81.45-5.09,11,5.08,14.43,2.54,50.07,3.38Zm18.67-87.39c11.88.84,24.6,1.69,33.93-.85V353c-1.69,7.63-22.91,5.09-32.24,4.24-12.72-.85-28-2.55-39.88,2.55,1.7-13.58-6.79-22.91,38.19-18.67ZM291,279.15c11-13.58,19.51-33.09,25.45-56H364C347,249.45,321.58,269.82,291,279.15Zm82.3-73H319.89A392.32,392.32,0,0,0,325,159.51h60.24c-1.7,17-5.09,32.24-11.88,46.67Zm99.27-67.88A12.73,12.73,0,1,1,459.89,151,13.05,13.05,0,0,1,472.61,138.3ZM325,142.54c-.84-16.12-1.69-32.24-5.09-46.66h53.46c6.78,14.42,10.18,30.54,11.87,46.66Zm39-63.63H316.49C310.55,56,301.21,36.48,291,22.91,321.58,32.24,347,52.6,364,78.91Zm-152.73-56c-11,13.57-19.51,33.09-25.45,56H138.3C155.27,52.6,180.73,32.24,211.27,22.91Zm-82.3,73h53.45a391.92,391.92,0,0,0-5.09,46.66H117.09c1.7-16.12,5.09-32.24,11.88-46.66ZM29.7,138.3a12.73,12.73,0,1,1,0,25.46,12.73,12.73,0,0,1,0-25.46Z"/></g></g></svg>