<svg xmlns="http://www.w3.org/2000/svg" viewBox="0 0 470.59 545.1"><defs><style>.cls-1{fill:#c71c6d;}</style></defs><g id="Layer_2" data-name="Layer 2"><g id="Layer_1-2" data-name="Layer 1"><path class="cls-1" d="M50.48,22.45c-11-11-30.54-11-41.57,0C-3,33.48-3,52.14,8.91,64a29.34,29.34,0,0,0,33.94,5.09L126,152.26a7.68,7.68,0,0,0,5.94,2.55h53.45v32.24H149.75c-5.09,0-8.48,3.39-8.48,8.48v45.82c0,5.09,3.39,8.48,8.48,8.48h12.73v222.3a73,73,0,0,0,73,73c39.88,0,73-33.09,73-73V249h12.73c5.09,0,8.48-3.39,8.48-8.48V194.68c0-5.09-3.39-8.48-8.48-8.48H285.51V154H339a7.68,7.68,0,0,0,5.94-2.55l83.15-83.15c11.88,6.79,25.46,3.39,33.94-5.09,11.88-11.88,11-29.7,0-41.57-11-11-30.54-11-41.57,0-8.49,8.48-11.88,22.06-5.09,33.93l-80.61,80.61H285.51V120l39-61.94a28.62,28.62,0,0,0,32.25-12.73A29.89,29.89,0,0,0,348.3,4.63a29.9,29.9,0,0,0-40.73,8.48c-6.79,11-5.93,25.45,2.55,34.79l-40.73,64.48c-.84,1.7-1.69,2.55-1.69,4.25V184.5H244.78v-123C256.66,58.08,266,46.2,266,33.47a29.7,29.7,0,0,0-59.39,0,29.26,29.26,0,0,0,21.21,28V187H203.21V119.16a6.53,6.53,0,0,0-1.69-4.24L160.79,50.43c8.48-9.33,9.33-23.75,2.55-34.78A28.47,28.47,0,0,0,138.73,2.07C126,2.07,113.28,11.4,109.88,25c-4.24,17.82,10.19,35.64,28.85,35.64a23.47,23.47,0,0,0,7.64-.85l39,61.94v16.12H136.19L55.58,57.23c6.78-12.73,4.24-26.31-5.09-34.79ZM434,34.32a11.34,11.34,0,0,1,17,0c5.09,5.09,5.09,12.73,0,17-4.24,4.25-12.72,5.09-17,0C428.9,47.05,428.9,39.41,434,34.32ZM322.84,25c3.4-5.94,11-7.63,17-3.39,5.94,3.39,7.64,11,3.4,17-3.4,5.09-11,6.79-17,3.39C321.14,37.72,319.45,30.08,322.84,25Zm-99.27,8.49a12.73,12.73,0,1,1,25.45,0,12.73,12.73,0,0,1-25.45,0ZM292.3,472.15a56,56,0,0,1-56,56c-30.55,0-56-25.46-56-56V249h112ZM313.51,232H159.08V203.18H313.51ZM127.69,28.39c.85-5.1,5.94-9.34,11.88-9.34,4.24,0,8.48,1.7,10.18,5.94a12.15,12.15,0,0,1-10.18,18.67c-8.49,0-13.58-7.64-11.88-15.27ZM21.63,51.29c-5.09-5.09-5.09-12.72,0-17,5.09-5.09,12.73-5.09,17,0,5.09,5.09,5.09,12.73,0,17A11.32,11.32,0,0,1,21.63,51.29Z"/><path class="cls-1" d="M222.73,359.3h27.16c5.09,0,8.48-3.4,8.48-8.49s-3.39-8.48-8.48-8.48H222.73c-5.09,0-8.48,3.39-8.48,8.48S217.64,359.3,222.73,359.3Z"/><path class="cls-1" d="M222.73,418.69h27.16c5.09,0,8.48-3.4,8.48-8.49s-3.39-8.48-8.48-8.48H222.73c-5.09,0-8.48,3.39-8.48,8.48S217.64,418.69,222.73,418.69Z"/><path class="cls-1" d="M222.73,478.08h27.16c5.09,0,8.48-3.4,8.48-8.49s-3.39-8.48-8.48-8.48H222.73c-5.09,0-8.48,3.39-8.48,8.48S217.64,478.08,222.73,478.08Z"/><path class="cls-1" d="M222.73,299.9h27.16c5.09,0,8.48-3.4,8.48-8.49s-3.39-8.48-8.48-8.48H222.73c-5.09,0-8.48,3.39-8.48,8.48S217.64,299.9,222.73,299.9Z"/></g></g></svg>