<svg id="Layer_1" data-name="Layer 1" xmlns="http://www.w3.org/2000/svg" viewBox="0 0 583.9 156.52"><defs><style>.cls-1{fill:#404041;}.cls-2{fill:#c7156c;}</style></defs><path class="cls-1" d="M324.54,600.3q3.36-.28,6.79-.47c2.28-.12,4.6-.19,6.93-.19a39.41,39.41,0,0,1,7.41.73,18.59,18.59,0,0,1,6.78,2.74,15,15,0,0,1,4.93,5.58,19.83,19.83,0,0,1,1.9,9.27,19.57,19.57,0,0,1-1.9,9.23,15.5,15.5,0,0,1-4.89,5.58,17.82,17.82,0,0,1-6.68,2.78,37.79,37.79,0,0,1-7.26.73c-.63,0-1.23,0-1.79,0s-1.08-.06-1.56-.11V653c-.93.14-1.83.24-2.7.29s-1.73.07-2.56.07-1.63,0-2.55-.07-1.88-.15-2.85-.29Zm10.66,27a9.7,9.7,0,0,0,1.64.15h1.86a13.42,13.42,0,0,0,3.57-.48,8.2,8.2,0,0,0,3.1-1.57,7.76,7.76,0,0,0,2.16-2.88,10.83,10.83,0,0,0,.8-4.41,11.6,11.6,0,0,0-.8-4.56,7.71,7.71,0,0,0-5.26-4.6,13.42,13.42,0,0,0-3.57-.48c-.54,0-1,0-1.5,0s-1.13.09-2,.18Z" transform="translate(-135.42 -548.28)"/><path class="cls-1" d="M366.94,599.64a23.11,23.11,0,0,1,2.55-.29c.88-.05,1.73-.07,2.56-.07s1.67,0,2.55.07a26.43,26.43,0,0,1,2.63.29v20.07c.34-.44.79-1,1.35-1.57a11.28,11.28,0,0,1,2.08-1.75,12,12,0,0,1,3-1.42,12.64,12.64,0,0,1,4-.58q6.27,0,9.52,3.5t3.25,11v24.15a23.24,23.24,0,0,1-2.63.29c-.87,0-1.72.07-2.55.07s-1.68,0-2.55-.07a23.5,23.5,0,0,1-2.63-.29V631.68a12.07,12.07,0,0,0-1.24-6.06,4.5,4.5,0,0,0-4.23-2.11,9.69,9.69,0,0,0-2.56.36,5.42,5.42,0,0,0-2.37,1.42,7.93,7.93,0,0,0-1.75,3,14.83,14.83,0,0,0-.69,5v19.85a23.76,23.76,0,0,1-2.63.29c-.88,0-1.73.07-2.55.07s-1.67,0-2.52-.07a23.32,23.32,0,0,1-2.59-.29Z" transform="translate(-135.42 -548.28)"/><path class="cls-1" d="M428.67,628.18a6,6,0,0,0-.58-2.85,4.35,4.35,0,0,0-1.61-1.71,6.46,6.46,0,0,0-2.52-.84,22.31,22.31,0,0,0-3.31-.22,25.91,25.91,0,0,0-8.4,1.53,19.61,19.61,0,0,1-1.53-3.58,13.82,13.82,0,0,1-.51-4,39.68,39.68,0,0,1,12.41-2.11c5.05,0,9,1.21,11.85,3.64s4.27,6.33,4.27,11.68V651.6a58,58,0,0,1-6.2,1.53,42,42,0,0,1-8.25.73,33.54,33.54,0,0,1-6.82-.65,14.74,14.74,0,0,1-5.33-2.19,10.43,10.43,0,0,1-3.43-3.94,13.19,13.19,0,0,1-1.2-5.91,10.79,10.79,0,0,1,1.5-5.88,11.47,11.47,0,0,1,3.86-3.79,17.26,17.26,0,0,1,5.3-2,28.18,28.18,0,0,1,5.83-.62c1.41,0,3,.08,4.67.22Zm0,7.51c-.58-.09-1.22-.18-1.9-.25a15.48,15.48,0,0,0-1.82-.11,10.81,10.81,0,0,0-5.66,1.27,4.5,4.5,0,0,0-2.08,4.13,4.61,4.61,0,0,0,.81,2.92,4.72,4.72,0,0,0,1.93,1.49,8,8,0,0,0,2.41.59c.85.07,1.59.11,2.23.11a13.47,13.47,0,0,0,2.18-.19l1.9-.33Z" transform="translate(-135.42 -548.28)"/><path class="cls-1" d="M447.94,615.26c.72-.14,1.42-.25,2.07-.33a20.49,20.49,0,0,1,2.16-.11,15.33,15.33,0,0,1,2.15.15c.7.1,1.4.22,2.08.36a4.14,4.14,0,0,1,.4,1.06c.12.46.23,1,.33,1.46s.18,1,.25,1.53.14.94.19,1.28a18.63,18.63,0,0,1,3.94-4,9.31,9.31,0,0,1,5.83-1.79c.49,0,1.05,0,1.68.08a5.63,5.63,0,0,1,1.39.22,13.63,13.63,0,0,1,.22,1.67c.05.64.07,1.29.07,2,0,.83,0,1.73-.11,2.7a18.42,18.42,0,0,1-.4,2.78,9.73,9.73,0,0,0-1.79-.15h-1.2a17.22,17.22,0,0,0-2.78.26,6.33,6.33,0,0,0-2.91,1.35,7.94,7.94,0,0,0-2.3,3.28,16.39,16.39,0,0,0-.91,6.13v17.95a23.5,23.5,0,0,1-2.63.29c-.88,0-1.73.07-2.56.07s-1.66,0-2.51-.07a26,26,0,0,1-2.66-.29Z" transform="translate(-135.42 -548.28)"/><path class="cls-1" d="M477.27,615.26q1-.21,2-.33a22.21,22.21,0,0,1,2.26-.11,20,20,0,0,1,2.19.11c.63.08,1.29.19,2,.33a4.34,4.34,0,0,1,.41,1.06c.11.46.22.95.32,1.46s.19,1,.26,1.49.13.91.18,1.24a11.72,11.72,0,0,1,1.53-2.18,11.11,11.11,0,0,1,2.26-2,12.49,12.49,0,0,1,3-1.43,11.78,11.78,0,0,1,3.69-.54q8.82,0,11.31,6.71a14.47,14.47,0,0,1,4.12-4.71,10.87,10.87,0,0,1,6.75-2q6.42,0,9.45,3.53T532,629v24a31.42,31.42,0,0,1-10.36,0V631.68a14.72,14.72,0,0,0-1-6.06c-.66-1.41-2-2.11-4-2.11a8.48,8.48,0,0,0-2.44.36,5.2,5.2,0,0,0-2.19,1.35,7.27,7.27,0,0,0-1.61,2.77,14.58,14.58,0,0,0-.62,4.64V653a31.42,31.42,0,0,1-10.36,0V631.68a14.91,14.91,0,0,0-1-6.06q-1-2.11-4-2.11a8.8,8.8,0,0,0-2.48.36,5,5,0,0,0-2.23,1.42,7.65,7.65,0,0,0-1.57,3,17.32,17.32,0,0,0-.58,5V653a31.42,31.42,0,0,1-10.36,0Z" transform="translate(-135.42 -548.28)"/><path class="cls-1" d="M560.24,628.18a6,6,0,0,0-.59-2.85,4.33,4.33,0,0,0-1.6-1.71,6.46,6.46,0,0,0-2.52-.84,22.45,22.45,0,0,0-3.32-.22,25.8,25.8,0,0,0-8.39,1.53,18.94,18.94,0,0,1-1.53-3.58,13.48,13.48,0,0,1-.51-4,38.63,38.63,0,0,1,6.42-1.6,38.22,38.22,0,0,1,6-.51q7.59,0,11.86,3.64t4.27,11.68V651.6a58.2,58.2,0,0,1-6.21,1.53,41.94,41.94,0,0,1-8.24.73,33.64,33.64,0,0,1-6.83-.65,14.69,14.69,0,0,1-5.32-2.19,10.26,10.26,0,0,1-3.43-3.94,13.19,13.19,0,0,1-1.21-5.91,10.79,10.79,0,0,1,1.5-5.88,11.59,11.59,0,0,1,3.87-3.79,17.2,17.2,0,0,1,5.29-2,28.2,28.2,0,0,1,5.84-.62c1.41,0,3,.08,4.67.22Zm0,7.51c-.59-.09-1.22-.18-1.9-.25a15.64,15.64,0,0,0-1.83-.11,10.77,10.77,0,0,0-5.65,1.27,4.48,4.48,0,0,0-2.08,4.13,4.68,4.68,0,0,0,.8,2.92,4.75,4.75,0,0,0,1.94,1.49,8,8,0,0,0,2.4.59c.86.07,1.6.11,2.23.11a13.5,13.5,0,0,0,2.19-.19l1.9-.33Z" transform="translate(-135.42 -548.28)"/><path class="cls-1" d="M589.86,607H576.22a14.25,14.25,0,0,1-.22-1.61c0-.58-.08-1.14-.08-1.68s0-1.08.08-1.64a14.14,14.14,0,0,1,.22-1.57H611a14.44,14.44,0,0,1,.22,1.53c.05.54.07,1.07.07,1.61s0,1.11-.07,1.71A14.09,14.09,0,0,1,611,607H597.31v46a29.47,29.47,0,0,1-3.65.22,31.9,31.9,0,0,1-3.8-.22Z" transform="translate(-135.42 -548.28)"/><path class="cls-1" d="M618,636.06c.1,4.08,1.15,7.08,3.17,9s5,2.85,8.94,2.85a26.72,26.72,0,0,0,9.85-1.83,10.77,10.77,0,0,1,1,2.67,16.78,16.78,0,0,1,.44,3.1,24.38,24.38,0,0,1-5.29,1.53,36.74,36.74,0,0,1-6.38.51,24.08,24.08,0,0,1-8.76-1.42,15.39,15.39,0,0,1-9.49-10.14,26.2,26.2,0,0,1-1.09-7.77,27.4,27.4,0,0,1,1.06-7.78,17.39,17.39,0,0,1,3.24-6.27,15.6,15.6,0,0,1,5.51-4.23,18.18,18.18,0,0,1,7.85-1.57,16.47,16.47,0,0,1,6.78,1.31,13.8,13.8,0,0,1,4.89,3.61,15.53,15.53,0,0,1,3,5.48,22.36,22.36,0,0,1,1,6.89c0,.68,0,1.4-.08,2.15s-.1,1.4-.14,1.94Zm18.53-5.4a14,14,0,0,0-.54-3.91,9.84,9.84,0,0,0-1.61-3.24,7.67,7.67,0,0,0-2.7-2.23,8.47,8.47,0,0,0-3.9-.84,8.57,8.57,0,0,0-6.82,2.7,13.17,13.17,0,0,0-2.89,7.52Z" transform="translate(-135.42 -548.28)"/><path class="cls-1" d="M678.16,646.49a11.35,11.35,0,0,1,1,2.56,13.73,13.73,0,0,1,.51,3.13,26.94,26.94,0,0,1-9.85,1.68q-9.35,0-14.09-5.29T651,634.31a24.72,24.72,0,0,1,1.17-7.74,17.51,17.51,0,0,1,3.47-6.2,16.35,16.35,0,0,1,5.72-4.16,19.39,19.39,0,0,1,8-1.53,35.88,35.88,0,0,1,5.4.36,22.38,22.38,0,0,1,4.45,1.17,14.78,14.78,0,0,1-.33,2.88,12.35,12.35,0,0,1-.91,2.88,25.09,25.09,0,0,0-8.17-1.24q-5.62,0-8.4,3.73t-2.77,9.85q0,7,3.14,10.25a11.43,11.43,0,0,0,8.61,3.25,25.49,25.49,0,0,0,4-.3A18,18,0,0,0,678.16,646.49Z" transform="translate(-135.42 -548.28)"/><path class="cls-1" d="M688,599.5a16.53,16.53,0,0,1,1.79-.22c.65,0,1.25-.07,1.78-.07s1.15,0,1.83.07a16.52,16.52,0,0,1,1.82.22v21.74a23,23,0,0,1,1.64-2.19,12.67,12.67,0,0,1,2.41-2.15,13.07,13.07,0,0,1,3.29-1.6,12.77,12.77,0,0,1,4.12-.62q6.42,0,9.52,3.68t3.1,10.91V653c-.53.09-1.13.17-1.78.22s-1.26.07-1.79.07-1.13,0-1.79-.07-1.25-.13-1.79-.22V631.24q0-5.18-1.71-7.62a6,6,0,0,0-5.22-2.45,10.7,10.7,0,0,0-3.8.69,8.68,8.68,0,0,0-3.21,2.19A10.56,10.56,0,0,0,696,628a18.41,18.41,0,0,0-.81,5.84V653c-.53.09-1.14.17-1.82.22s-1.29.07-1.83.07-1.07,0-1.75-.07-1.29-.13-1.82-.22Z" transform="translate(-135.42 -548.28)"/><path class="cls-2" d="M269.3,654.33a7.46,7.46,0,0,0-3.41,7.95l-4.31,3.5a11.21,11.21,0,0,0-4.9-2.16L252.9,656a11.3,11.3,0,0,0,1.65-13l9.94-8.14a11.27,11.27,0,1,0,0-16.67l-9.94-8.14a11.3,11.3,0,0,0-1.65-13l3.78-7.65a11.21,11.21,0,0,0,4.9-2.16l4.31,3.5a7.45,7.45,0,1,0,4.2-5.2l-4.65-3.78a11.29,11.29,0,0,0-4.88-13.13,11.49,11.49,0,0,0-4.75-1.59l-1-5.75a7,7,0,0,0,1.47-1.75,7.45,7.45,0,1,0-10.23,2.5,7.61,7.61,0,0,0,2.27.91l1,5.44a11.28,11.28,0,0,0-5.57,7.39l-6.53,0a7.44,7.44,0,1,0-.49,6.75l0-.07,7.5,0a11.23,11.23,0,0,0,4.62,5.47c.29.18.58.33.88.48l-2.6,5.27A11.33,11.33,0,0,0,234,600.86l-14.21,3.61a11.16,11.16,0,0,0-20.76,0l-14.21-3.61a12,12,0,0,0-1-2,11.3,11.3,0,0,0-12.17-5.14l-2.61-5.27c.3-.15.59-.3.88-.48a11.23,11.23,0,0,0,4.62-5.47l7.51,0a.16.16,0,0,0,0,.07,7.46,7.46,0,1,0-.5-6.75l-6.52,0a11.69,11.69,0,0,0-1.36-3.36,11.3,11.3,0,0,0-4.22-4l1-5.44a7.61,7.61,0,0,0,2.27-.91,7.45,7.45,0,1,0-10.23-2.5,7.16,7.16,0,0,0,1.47,1.75l-1,5.75a11.54,11.54,0,0,0-4.75,1.59,11.3,11.3,0,0,0-4.88,13.13l-4.65,3.78a7.45,7.45,0,1,0,4.2,5.2l4.31-3.5a11.26,11.26,0,0,0,4.9,2.16l3.78,7.65a11.3,11.3,0,0,0-1.65,13l-9.93,8.14a11.27,11.27,0,1,0,0,16.67l9.93,8.14a11.3,11.3,0,0,0,1.65,13l-3.78,7.65a11.26,11.26,0,0,0-4.9,2.16l-4.31-3.5a7.44,7.44,0,1,0-4.2,5.2l4.65,3.78A11.28,11.28,0,0,0,163,686l1,5.76a7.16,7.16,0,0,0-1.47,1.75,7.45,7.45,0,1,0,10.23-2.5,7.09,7.09,0,0,0-2.27-.9l-1-5.45a11.3,11.3,0,0,0,4.22-4,11.69,11.69,0,0,0,1.36-3.36l6.52,0a7.45,7.45,0,1,0,.5-6.75.16.16,0,0,0,0,.07l-7.51,0a11.18,11.18,0,0,0-4.62-5.47c-.29-.17-.58-.33-.88-.48l2.61-5.27a11.3,11.3,0,0,0,12.17-5.14,12,12,0,0,0,1-2L199,648.59a11.16,11.16,0,0,0,20.76,0L234,652.21a11.33,11.33,0,0,0,13.13,7.12l2.6,5.27c-.3.15-.59.31-.88.48a11.18,11.18,0,0,0-4.62,5.47l-7.5,0,0-.07a7.47,7.47,0,1,0,.49,6.75l6.53,0a11.28,11.28,0,0,0,5.57,7.39l-1,5.45a7.09,7.09,0,0,0-2.27.9,7.45,7.45,0,1,0,10.23,2.5,7,7,0,0,0-1.47-1.75l1-5.76a11.28,11.28,0,0,0,9.63-14.71l4.65-3.78a7.45,7.45,0,1,0-.79-13.15Zm-30.58-15.66a11.29,11.29,0,0,0-5,6.58l-13.44-3.43a11.18,11.18,0,0,0-21.77,0l-13.45,3.43a11.29,11.29,0,0,0-16.05-7L157.72,629a10.88,10.88,0,0,0,0-5L169,614.78a11.29,11.29,0,0,0,16.05-7l13.45,3.43a11.41,11.41,0,0,0,1.34,3.28,11.1,11.1,0,0,0,19.08,0,11.44,11.44,0,0,0,1.35-3.28l13.44-3.43a11.29,11.29,0,0,0,16.05,7l11.3,9.26a10.88,10.88,0,0,0,0,5l-11.3,9.26A11.27,11.27,0,0,0,238.72,638.67Z" transform="translate(-135.42 -548.28)"/></svg>